<svg xmlns="http://www.w3.org/2000/svg" version="1.1" xmlns:xlink="http://www.w3.org/1999/xlink" xmlns:svgjs="http://svgjs.dev/svgjs" viewBox="0 0 800 800" opacity="1"><defs><symbol id="bbburst-shape-1" viewBox="0 0 194 167"><path d="m97 0 96.129 166.5H.871L97 0Z"></path></symbol><symbol id="bbburst-shape-10" viewBox="0 0 145 145"><circle cx="72.5" cy="72.5" r="61.5" fill="none" stroke-width="22"></circle></symbol><symbol id="bbburst-shape-11" viewBox="0 0 194 167"><path d="M10.398 161 97 11l86.603 150H10.397Z" stroke-width="11"></path></symbol><symbol id="bbburst-shape-13" viewBox="0 0 159 159"><path stroke-width="22" d="M11 11h137v137H11z"></path></symbol></defs><use xlink:href="#bbburst-shape-13" width="37.31287899631082" opacity="0.664223578725903" transform="matrix(0.9781221493847876,-0.20803139398389697,0.20803139398389697,0.9781221493847876,171.82087498741427,217.5350974165928)" fill="none" stroke="#ff5c58"></use><use xlink:href="#bbburst-shape-10" width="26.171413852146465" opacity="0.8318532599610671" transform="matrix(0.847233424394351,0.531220787045294,-0.531220787045294,0.847233424394351,343.6930421613941,364.56454149291676)" fill="none" stroke="#00a19d"></use><use xlink:href="#bbburst-shape-1" width="59.26772061937843" opacity="0.3644587306735253" transform="matrix(0.8720122109833758,-0.48948412016722714,0.48948412016722714,0.8720122109833758,37.13748037537482,-114.72329580552181)" fill="#00a19d"></use><use xlink:href="#bbburst-shape-13" width="39.92714565771911" opacity="0.6072573735859423" transform="matrix(0.9387053590994834,0.344720537244171,-0.344720537244171,0.9387053590994834,179.87666221333032,29.616888087212203)" fill="none" stroke="#ffbd9b"></use><use xlink:href="#bbburst-shape-10" width="48.01809499072846" opacity="0.49658528270414504" transform="matrix(0.8487808709742126,-0.5287447711970843,0.5287447711970843,0.8487808709742126,-60.89253031123488,-0.30572258590177626)" fill="none" stroke="#ff5c58"></use><use xlink:href="#bbburst-shape-1" width="62.14510459829038" opacity="0.1977873299503966" transform="matrix(0.9732890102542724,0.22958332369372725,-0.22958332369372725,0.9732890102542724,672.3975343893123,-116.40774077267258)" fill="#00a19d"></use><use xlink:href="#bbburst-shape-13" width="42.065920180739" opacity="0.6009327033996213" transform="matrix(0.793523256553181,0.6085399258136104,-0.6085399258136104,0.793523256553181,413.1739811227353,116.9573581365263)" fill="none" stroke="#ffbd9b"></use><use xlink:href="#bbburst-shape-1" width="29.41026659248236" opacity="0.707921566703008" transform="matrix(0.9919386511449257,0.1267190292133956,-0.1267190292133956,0.9919386511449257,309.14127569558906,297.68661552847124)" fill="#00a19d"></use><use xlink:href="#bbburst-shape-13" width="78.19131126429679" opacity="0.2898858469573884" transform="matrix(0.994044368070881,0.10897611805603442,-0.10897611805603442,0.994044368070881,436.16552083358835,-165.9025857174543)" fill="none" stroke="#00a19d"></use><use xlink:href="#bbburst-shape-10" width="62.66588491254324" opacity="0.40279729751384163" transform="matrix(0.7609301109856622,0.6488338509937254,-0.6488338509937254,0.7609301109856622,827.4810390230948,395.0731652968161)" fill="none" stroke="#ff5c58"></use><use xlink:href="#bbburst-shape-10" width="35.91407719748201" opacity="0.7924821093526065" transform="matrix(0.8907678350020283,0.4544586495224834,-0.4544586495224834,0.8907678350020283,200.8460441245483,230.99704345020712)" fill="none" stroke="#2c2891"></use><use xlink:href="#bbburst-shape-11" width="48.75238701569367" opacity="0.3738680121403217" transform="matrix(0.897502109984654,0.4410101615304278,-0.4410101615304278,0.897502109984654,248.90704452429796,-189.33486516423173)" fill="none" stroke="#ffbd9b"></use><use xlink:href="#bbburst-shape-13" width="44.69573407607799" opacity="0.15629350202435222" transform="matrix(0.8660865247330815,0.49989412046529763,-0.49989412046529763,0.8660865247330815,917.1717284028468,30.92525277259091)" fill="none" stroke="#00a19d"></use><use xlink:href="#bbburst-shape-10" width="55.40841907318288" opacity="0.12334577588998763" transform="matrix(0.7696229997508053,0.6384985812471098,-0.6384985812471098,0.7696229997508053,737.6768400119752,-243.11092103224678)" fill="none" stroke="#2c2891"></use><use xlink:href="#bbburst-shape-1" width="16.467210116041183" opacity="0.9265004696457728" transform="matrix(0.99811133771485,-0.061430916687548395,0.061430916687548395,0.99811133771485,-9.805307711267076,331.4689258513657)" fill="#2c2891"></use><use xlink:href="#bbburst-shape-10" width="62.20522866233007" opacity="0.4573230429334657" transform="matrix(0.9874615505680931,0.15785970400851906,-0.15785970400851906,0.9874615505680931,527.2335067388296,177.2400619665621)" fill="none" stroke="#00a19d"></use><use xlink:href="#bbburst-shape-11" width="41.052469236833815" opacity="0.6572871097974955" transform="matrix(0.9601833053923686,0.2793707573204207,-0.2793707573204207,0.9601833053923686,431.31920740640135,360.27212195136985)" fill="none" stroke="#ff5c58"></use><use xlink:href="#bbburst-shape-10" width="36.95904436280591" opacity="0.7371090558409085" transform="matrix(0.7485646568695459,0.6630618029156701,-0.6630618029156701,0.7485646568695459,368.5590172740941,252.98420149909936)" fill="none" stroke="#2c2891"></use><use xlink:href="#bbburst-shape-10" width="44.55918581809106" opacity="0.5420754697356922" transform="matrix(0.997143265096192,-0.0755334950423008,0.0755334950423008,0.997143265096192,400.2572610310901,333.7624962910861)" fill="none" stroke="#ff5c58"></use><use xlink:href="#bbburst-shape-13" width="44.0855481847113" opacity="0.5804896170330092" transform="matrix(0.9671203256674036,-0.25431923969879927,0.25431923969879927,0.9671203256674036,253.27765779895415,233.3670918826552)" fill="none" stroke="#2c2891"></use><use xlink:href="#bbburst-shape-10" width="60.63334840983282" opacity="0.38252170973427513" transform="matrix(0.9909658092208036,-0.13411474548071867,0.13411474548071867,0.9909658092208036,398.3299609651235,21.7553916999737)" fill="none" stroke="#00a19d"></use><use xlink:href="#bbburst-shape-11" width="34.807726804893996" opacity="0.7603770555913603" transform="matrix(0.9258590976795773,-0.37786893394927157,0.37786893394927157,0.9258590976795773,21.293892849771368,288.1616581366343)" fill="none" stroke="#2c2891"></use><use xlink:href="#bbburst-shape-10" width="72.31418253977552" opacity="0.2995639974642539" transform="matrix(0.9206349290412899,0.39042454767744705,-0.39042454767744705,0.9206349290412899,766.4199146565318,141.09736414116668)" fill="none" stroke="#2c2891"></use><use xlink:href="#bbburst-shape-10" width="50.67733287148698" opacity="0.5472608008043027" transform="matrix(0.9283479526408742,-0.3717123603372602,0.3717123603372602,0.9283479526408742,159.11768638850396,129.54092906526716)" fill="none" stroke="#00a19d"></use><use xlink:href="#bbburst-shape-13" width="47.92417069359048" opacity="0.25455554340481235" transform="matrix(0.9916216658980606,0.12917612674776688,-0.12917612674776688,0.9916216658980606,124.15733008630716,-338.9487856316859)" fill="none" stroke="#ffbd9b"></use><use xlink:href="#bbburst-shape-10" width="26.789549132754544" opacity="0.773024110943231" transform="matrix(0.9444376827742521,0.3286905282419942,-0.3286905282419942,0.9444376827742521,342.4379201683924,378.89108938727696)" fill="none" stroke="#00a19d"></use><use xlink:href="#bbburst-shape-1" width="40.556139636757095" opacity="0.7012133709129311" transform="matrix(0.7902335259583935,-0.6128058211630868,0.6128058211630868,0.7902335259583935,-207.62481064497013,202.4147358256331)" fill="#ffbd9b"></use><use xlink:href="#bbburst-shape-13" width="27.11465965855053" opacity="0.8128352540662765" transform="matrix(0.7962213487840865,0.6050054245545656,-0.6050054245545656,0.7962213487840865,336.2687600886703,318.41316832160663)" fill="none" stroke="#ff5c58"></use><use xlink:href="#bbburst-shape-13" width="52.87429578447657" opacity="0.21866736341652426" transform="matrix(0.9373307262974598,-0.3484409699485359,0.3484409699485359,0.9373307262974598,130.03244751422392,-289.5529515270209)" fill="none" stroke="#00a19d"></use><use xlink:href="#bbburst-shape-13" width="72.30818229486977" opacity="0.01348322699769433" transform="matrix(0.8738940059736231,-0.48611651517241533,0.48611651517241533,0.8738940059736231,482.5379703561357,-218.37199509670268)" fill="none" stroke="#00a19d"></use><use xlink:href="#bbburst-shape-11" width="65.81326404947363" opacity="0.4564099516276334" transform="matrix(0.9763449507607619,0.2162187251927209,-0.2162187251927209,0.9763449507607619,374.1517507828206,-38.18566372158318)" fill="none" stroke="#00a19d"></use><use xlink:href="#bbburst-shape-13" width="53.26960643659225" opacity="0.4920637814050738" transform="matrix(0.719467562158242,0.6945260448695039,-0.6945260448695039,0.719467562158242,310.923726231557,-11.524543483526656)" fill="none" stroke="#ff5c58"></use><use xlink:href="#bbburst-shape-13" width="18.665883150583625" opacity="0.9074701942584752" transform="matrix(0.9898909491130028,0.14183056392808505,-0.14183056392808505,0.9898909491130028,135.52982172408036,374.2349678751327)" fill="none" stroke="#ff5c58"></use><use xlink:href="#bbburst-shape-1" width="25.345630493420387" opacity="0.8860498797966408" transform="matrix(0.7885843001051716,0.6149266636174079,-0.6149266636174079,0.7885843001051716,311.5278714619587,391.51334179532887)" fill="#00a19d"></use><use xlink:href="#bbburst-shape-13" width="62.26686465576509" opacity="0.25579471593989556" transform="matrix(0.8712956607665803,0.4907584655707207,-0.4907584655707207,0.8712956607665803,903.9228284462744,317.9234238742543)" fill="none" stroke="#00a19d"></use><use xlink:href="#bbburst-shape-1" width="19.266522357079694" opacity="0.9625725292638883" transform="matrix(0.8857877911906635,0.4640904965387305,-0.4640904965387305,0.8857877911906635,207.41272214936717,419.2942317780443)" fill="#2c2891"></use><use xlink:href="#bbburst-shape-10" width="20.909235229154596" opacity="0.8475615941048235" transform="matrix(0.9609298075990753,0.27679216908649007,-0.27679216908649007,0.9609298075990753,250.2998385512358,383.60362303053347)" fill="none" stroke="#ffbd9b"></use><use xlink:href="#bbburst-shape-1" width="41.50205684095514" opacity="0.6751125336631765" transform="matrix(0.960096173112003,0.27967005269725725,-0.27967005269725725,0.960096173112003,294.4437600279322,156.16205957385267)" fill="#ffbd9b"></use><use xlink:href="#bbburst-shape-13" width="24.161004274018644" opacity="0.8643874074918756" transform="matrix(0.8895161640090294,-0.4569037031658437,0.4569037031658437,0.8895161640090294,-161.24581223831416,317.99386315552874)" fill="none" stroke="#2c2891"></use></svg>