<svg xmlns="http://www.w3.org/2000/svg" version="1.1" xmlns:xlink="http://www.w3.org/1999/xlink" xmlns:svgjs="http://svgjs.dev/svgjs" viewBox="0 0 800 800" opacity="1"><defs><symbol id="bbburst-shape-1" viewBox="0 0 194 167"><path d="m97 0 96.129 166.5H.871L97 0Z"></path></symbol><symbol id="bbburst-shape-10" viewBox="0 0 145 145"><circle cx="72.5" cy="72.5" r="61.5" fill="none" stroke-width="22"></circle></symbol><symbol id="bbburst-shape-11" viewBox="0 0 194 167"><path d="M10.398 161 97 11l86.603 150H10.397Z" stroke-width="11"></path></symbol><symbol id="bbburst-shape-13" viewBox="0 0 159 159"><path stroke-width="22" d="M11 11h137v137H11z"></path></symbol></defs><use xlink:href="#bbburst-shape-13" width="14.057351724474422" opacity="0.9279912225416608" transform="matrix(0.8566543156214187,0.5158908639695016,-0.5158908639695016,0.8566543156214187,931.3021268019457,433.2256104885672)" fill="none" stroke="#2c2891"></use><use xlink:href="#bbburst-shape-1" width="87.89467920586816" opacity="0.14651903171914404" transform="matrix(0.9990321626064441,-0.04398565763850055,0.04398565763850055,0.9990321626064441,26.30554930100257,-67.8861374663602)" fill="#ffbd9b"></use><use xlink:href="#bbburst-shape-10" width="65.695252938001" opacity="0.5975906734514471" transform="matrix(0.8159215021000755,0.578162695450646,-0.578162695450646,0.8159215021000755,721.3226501357283,168.6956139414093)" fill="none" stroke="#2c2891"></use><use xlink:href="#bbburst-shape-10" width="30.188054726768467" opacity="0.8169685102754518" transform="matrix(0.9983973790393648,0.05659216842750355,-0.05659216842750355,0.9983973790393648,770.3311453549587,220.5830019476228)" fill="none" stroke="#2c2891"></use><use xlink:href="#bbburst-shape-10" width="75.1496556502009" opacity="0.026032926129603173" transform="matrix(0.8514660714408201,-0.5244096959297533,0.5244096959297533,0.8514660714408201,-121.47167840809881,-218.44945543719075)" fill="none" stroke="#00a19d"></use><use xlink:href="#bbburst-shape-1" width="26.15994603829926" opacity="0.8916888667147348" transform="matrix(0.8262924147927495,-0.5632413738850928,0.5632413738850928,0.8262924147927495,484.6193093819081,403.0975716141432)" fill="#00a19d"></use><use xlink:href="#bbburst-shape-10" width="51.9411155194939" opacity="0.6783661436003972" transform="matrix(0.8273870500307248,-0.5616321477991222,0.5616321477991222,0.8273870500307248,395.9645101905152,203.42128385806302)" fill="none" stroke="#2c2891"></use><use xlink:href="#bbburst-shape-11" width="20.08515361741935" opacity="0.9567629747196033" transform="matrix(0.9933215911360023,0.11537857939427368,-0.11537857939427368,0.9933215911360023,815.313764248041,363.40105075318866)" fill="none" stroke="#2c2891"></use><use xlink:href="#bbburst-shape-10" width="69.87761816270029" opacity="0.26354095314499526" transform="matrix(0.9960883173496355,-0.08836325050365577,0.08836325050365577,0.9960883173496355,616.6651835285438,-323.05712745633235)" fill="none" stroke="#2c2891"></use><use xlink:href="#bbburst-shape-10" width="71.11419691123561" opacity="0.4440065834328131" transform="matrix(0.8478813447256508,0.5301860289240202,-0.5301860289240202,0.8478813447256508,903.0985049527433,-108.38144275225875)" fill="none" stroke="#ff5c58"></use><use xlink:href="#bbburst-shape-13" width="37.03240131102771" opacity="0.8222774242107787" transform="matrix(0.9268241076139091,0.37549577034326387,-0.37549577034326387,0.9268241076139091,787.9657707866949,319.65486008469463)" fill="none" stroke="#00a19d"></use><use xlink:href="#bbburst-shape-1" width="54.31651104642998" opacity="0.5325658303138316" transform="matrix(0.9072217735635549,-0.42065265192578755,0.42065265192578755,0.9072217735635549,399.6262399162053,29.747018306991038)" fill="#ffbd9b"></use><use xlink:href="#bbburst-shape-11" width="45.12797753546092" opacity="0.23004933296951025" transform="matrix(0.8156439931427025,-0.5785541257740948,0.5785541257740948,0.8156439931427025,-192.71358567235308,282.75044514673357)" fill="none" stroke="#00a19d"></use><use xlink:href="#bbburst-shape-11" width="54.333586927313284" opacity="0.5801975682487195" transform="matrix(0.9663669775772995,-0.25716699758739486,0.25716699758739486,0.9663669775772995,256.42531569708655,351.8620602387168)" fill="none" stroke="#ffbd9b"></use><use xlink:href="#bbburst-shape-13" width="68.12888471665552" opacity="0.2412702001515904" transform="matrix(0.9998455584254844,0.017574393213744634,-0.017574393213744634,0.9998455584254844,248.58154566844476,-148.8862812388907)" fill="none" stroke="#2c2891"></use><use xlink:href="#bbburst-shape-10" width="43.713267182600056" opacity="0.7839571757241697" transform="matrix(0.7213448762309692,0.6925760388111386,-0.6925760388111386,0.7213448762309692,941.4134648224119,316.57401062564423)" fill="none" stroke="#2c2891"></use><use xlink:href="#bbburst-shape-10" width="56.65365884571332" opacity="0.3879546200105881" transform="matrix(0.8471903251334177,0.5312895190010188,-0.5312895190010188,0.8471903251334177,494.6513864647487,84.55545807282567)" fill="none" stroke="#ffbd9b"></use><use xlink:href="#bbburst-shape-10" width="77.7610568172028" opacity="0.328778949119763" transform="matrix(0.889310233962833,-0.4573043929036448,0.4573043929036448,0.889310233962833,336.5275150003956,-162.4713171740074)" fill="none" stroke="#00a19d"></use><use xlink:href="#bbburst-shape-1" width="62.889355122661" opacity="0.5335964757246296" transform="matrix(0.9273268832829292,0.374252390160395,-0.374252390160395,0.9273268832829292,521.4417702167048,175.97211172305896)" fill="#2c2891"></use><use xlink:href="#bbburst-shape-13" width="59.36034626552968" opacity="0.17237775553826895" transform="matrix(0.771875406932917,-0.6357738246988027,0.6357738246988027,0.771875406932917,107.07678842899179,-205.5258208982372)" fill="none" stroke="#00a19d"></use><use xlink:href="#bbburst-shape-13" width="64.3626450237221" opacity="0.2954274619697951" transform="matrix(0.9978243019671758,0.06592922268401445,-0.06592922268401445,0.9978243019671758,153.84442154319837,104.99728500700519)" fill="none" stroke="#ff5c58"></use><use xlink:href="#bbburst-shape-13" width="42.06833587975704" opacity="0.7734104575717241" transform="matrix(0.9868463882858158,0.16166077423803454,-0.16166077423803454,0.9868463882858158,621.6789620636521,357.6163522445539)" fill="none" stroke="#2c2891"></use><use xlink:href="#bbburst-shape-13" width="42.62999616312387" opacity="0.6784437946415456" transform="matrix(0.7745043019063987,0.6325686415943189,-0.6325686415943189,0.7745043019063987,727.3018785462104,388.4924696078132)" fill="none" stroke="#ff5c58"></use><use xlink:href="#bbburst-shape-11" width="49.8455223547549" opacity="0.4529459214389606" transform="matrix(0.7686496158340941,0.6396700462567398,-0.6396700462567398,0.7686496158340941,504.4847183783686,351.34171201718885)" fill="none" stroke="#ff5c58"></use><use xlink:href="#bbburst-shape-10" width="22.60795058642954" opacity="0.8844321194676711" transform="matrix(0.9706046461115546,-0.2406794983929121,0.2406794983929121,0.9706046461115546,656.2691591084051,304.8219998542129)" fill="none" stroke="#00a19d"></use><use xlink:href="#bbburst-shape-10" width="46.52895568931953" opacity="0.7230645338430829" transform="matrix(0.7504192261246975,0.6609621661354076,-0.6609621661354076,0.7504192261246975,998.0010180495688,211.8759602427374)" fill="none" stroke="#2c2891"></use><use xlink:href="#bbburst-shape-11" width="68.10726999627296" opacity="0.40778494946591914" transform="matrix(0.9175129372214634,-0.39770593411620453,0.39770593411620453,0.9175129372214634,259.2103273522162,-31.906248987607682)" fill="none" stroke="#ffbd9b"></use><use xlink:href="#bbburst-shape-10" width="61.215045680101824" opacity="0.5995574721769119" transform="matrix(0.8341347562396086,-0.5515607024010039,0.5515607024010039,0.8341347562396086,488.2024211876994,88.20232377439714)" fill="none" stroke="#00a19d"></use><use xlink:href="#bbburst-shape-10" width="54.13001607119596" opacity="0.3119236549218839" transform="matrix(0.953712510631807,0.3007198813919284,-0.3007198813919284,0.953712510631807,209.38806410621908,346.3138931050387)" fill="none" stroke="#2c2891"></use><use xlink:href="#bbburst-shape-10" width="53.21674280345966" opacity="0.7169668756585634" transform="matrix(0.9208392936307932,0.3899422974050672,-0.3899422974050672,0.9208392936307932,701.9802955300588,255.63840447436155)" fill="none" stroke="#ff5c58"></use><use xlink:href="#bbburst-shape-13" width="29.089072748845204" opacity="0.8591229495745762" transform="matrix(0.8969800990575342,0.4420709240548808,-0.4420709240548808,0.8969800990575342,826.1737192219947,404.6078864445106)" fill="none" stroke="#ffbd9b"></use></svg>